<?xml version="1.0" standalone="no"?>
<!DOCTYPE svg PUBLIC "-//W3C//DTD SVG 20010904//EN"
 "http://www.w3.org/TR/2001/REC-SVG-20010904/DTD/svg10.dtd">
<svg version="1.0" xmlns="http://www.w3.org/2000/svg"
 width="1024.000000pt" height="1024.000000pt" viewBox="0 0 1024.000000 1024.000000"
 preserveAspectRatio="xMidYMid meet">

<g transform="translate(0.000000,1024.000000) scale(0.100000,-0.100000)"
fill="#fff" stroke="none">

<path d="M6658 8119 c23 -24 12 -29 -62 -29 l-74 0 -75 -87 c-60 -69 -83 -105
-113 -177 -42 -103 -156 -372 -234 -554 l-53 -123 -91 -72 c-211 -169 -422
-304 -560 -359 -75 -29 -107 -19 -182 57 -72 73 -130 180 -119 216 4 13 26 50
48 82 53 78 57 133 12 156 -16 9 -32 20 -34 25 -2 4 -14 18 -27 29 -13 11 -24
32 -24 45 0 27 -2 27 -91 1 -46 -12 -47 -12 -115 28 -81 48 -143 67 -187 57
-87 -18 -183 -96 -217 -175 -31 -73 -29 -199 4 -298 26 -76 13 -83 -19 -11
-10 22 -21 40 -25 40 -4 0 -23 -16 -43 -35 -59 -58 -68 -122 -30 -220 13 -37
-19 -3 -38 39 -36 79 -14 166 57 224 44 36 40 40 -14 13 -93 -48 -132 -145
-102 -253 15 -52 175 -215 224 -229 70 -19 160 29 173 92 4 23 10 28 22 23 9
-3 33 -11 53 -16 50 -14 106 13 133 64 17 32 18 42 8 80 -6 23 -9 45 -7 48 3
3 27 -18 54 -46 84 -88 104 -220 46 -301 -107 -152 -116 -175 -116 -290 0
-126 -41 -464 -59 -490 -7 -10 -284 -121 -381 -153 -147 -48 -335 -90 -447
-100 -173 -16 -293 -55 -313 -103 -14 -32 -52 -189 -47 -193 2 -2 23 23 46 56
70 100 104 122 72 48 -10 -24 -21 -58 -25 -77 -7 -38 -9 -39 71 30 27 23 64
42 105 53 34 9 87 32 118 51 70 42 100 50 311 79 248 35 399 62 514 92 55 14
103 28 106 30 20 12 93 281 129 474 32 172 29 168 84 127 17 -13 73 -49 123
-80 l93 -57 30 28 c25 23 32 40 44 111 8 46 26 107 41 136 59 121 206 200 298
161 55 -22 67 -60 67 -202 0 -195 46 -374 167 -644 36 -80 91 -204 124 -277
167 -375 301 -877 355 -1328 9 -77 20 -144 25 -150 6 -5 9 -2 9 9 0 29 85 191
156 297 35 54 68 109 74 125 12 31 -8 284 -41 524 -21 151 -73 422 -115 598
-13 57 -24 108 -24 113 0 5 20 9 44 9 85 0 91 12 50 100 -50 106 -134 336
-161 440 -23 90 -27 125 -27 245 0 87 7 176 18 235 22 122 76 320 87 320 23 0
421 43 564 60 193 24 227 37 256 96 18 39 19 50 10 96 -16 75 -89 264 -190
489 -75 169 -89 194 -109 194 -30 0 -191 -125 -192 -148 0 -10 23 -76 50 -147
57 -148 105 -308 96 -318 -9 -8 -228 28 -488 79 -108 21 -203 39 -211 39 -8 0
-26 -36 -46 -94 -20 -57 -42 -103 -58 -117 -14 -13 -53 -58 -87 -99 l-62 -75
-17 -147 c-9 -81 -34 -261 -56 -400 -22 -139 -43 -275 -47 -303 l-7 -50 -43
89 -44 89 3 106 c2 100 0 109 -25 152 -19 31 -50 62 -98 94 -38 27 -70 51 -70
55 0 19 71 93 205 215 165 150 267 251 307 305 57 77 137 308 192 560 20 91
40 178 44 194 6 24 16 32 59 47 59 20 113 49 113 61 0 5 -12 13 -27 19 -22 8
-24 12 -13 19 25 16 50 11 75 -15 25 -25 33 -55 15 -55 -6 0 -27 -7 -47 -15
l-36 -15 67 -41 c37 -22 97 -49 132 -59 36 -9 73 -25 83 -34 9 -9 22 -16 27
-16 10 0 84 74 84 84 0 12 -160 244 -188 272 -26 26 -59 44 -112 59 -20 6 -23
5 -12 -6z"/>
<path d="M5465 7974 c-38 -15 -87 -29 -107 -31 -40 -5 -45 -12 -26 -31 16 -16
68 -15 148 3 36 8 92 14 125 14 l60 -1 -85 -22 c-240 -65 -215 -61 -252 -39
-25 14 -36 29 -44 63 l-11 45 -31 -31 c-69 -69 -62 -172 14 -229 42 -30 42
-30 49 -113 4 -46 4 -110 1 -143 l-7 -59 28 0 c26 0 31 -7 68 -98 36 -87 43
-97 68 -100 16 -2 46 6 68 17 22 12 45 21 52 21 7 0 31 -18 52 -40 l39 -40
-68 0 c-59 0 -67 -2 -63 -17 3 -10 11 -40 17 -66 19 -72 30 -72 135 -1 46 31
53 33 89 23 40 -11 132 -4 141 12 10 15 -16 139 -29 139 -7 0 -38 -15 -69 -34
-31 -19 -57 -31 -57 -26 0 12 76 106 99 122 19 14 19 16 3 110 -14 85 -15 106
-3 170 34 185 26 242 -46 320 -85 90 -219 113 -358 62z"/>

<path d="M3710 6559 c-184 -31 -588 -212 -771 -345 -165 -121 -384 -380 -452
-534 -177 -403 -165 -859 31 -1147 50 -73 153 -171 223 -211 382 -218 963 -58
1551 428 37 30 65 56 63 58 -2 2 -77 -38 -167 -89 -576 -325 -900 -403 -1219
-290 -114 40 -183 85 -285 186 -80 79 -97 102 -143 195 -62 127 -80 195 -88
321 -18 306 115 625 367 879 244 247 531 385 825 397 129 6 197 -3 287 -37
118 -44 226 -153 256 -256 26 -90 9 -236 -37 -324 -11 -22 -17 -40 -13 -40 14
1 77 96 100 152 108 268 -88 618 -369 658 -74 11 -85 11 -159 -1z"/>
<path d="M5420 5592 c-116 -87 -182 -174 -355 -472 -230 -397 -459 -756 -603
-948 -32 -42 -62 -84 -67 -92 -19 -31 84 60 210 185 180 179 346 375 486 575
126 179 321 543 375 700 14 41 28 81 31 88 9 22 -11 13 -77 -36z"/>
<path d="M5611 5593 c-3 -30 -116 -334 -192 -518 -155 -373 -356 -751 -547
-1030 -320 -466 -810 -958 -1229 -1232 -358 -234 -600 -300 -863 -237 -48 11
97 -74 161 -96 209 -68 421 -43 674 81 435 212 986 749 1384 1347 279 419 470
860 565 1303 30 138 59 342 53 372 -2 12 -5 16 -6 10z"/>



<path d="M4915 5169 c-365 -343 -589 -538 -795 -690 -418 -310 -764 -450
-1106 -449 -88 1 -211 13 -249 25 -12 4 -4 -9 22 -33 89 -83 267 -142 428
-142 280 0 556 120 891 388 240 191 565 525 801 823 84 105 168 219 161 219
-2 -1 -70 -64 -153 -141z"/>
<path d="M6025 5214 c38 -164 82 -526 94 -768 27 -538 -53 -1085 -219 -1501
-53 -132 -166 -344 -235 -440 -171 -238 -320 -359 -585 -473 -47 -20 242 -15
345 7 334 69 597 289 743 622 77 177 137 426 163 677 18 173 6 666 -20 862
-48 354 -144 727 -257 990 -37 88 -46 95 -29 24z"/>

<path d="M5875 4669 c-2 -8 -28 -81 -56 -164 -183 -534 -462 -1051 -751 -1386
-456 -532 -923 -777 -1483 -779 l-130 0 25 -20 c77 -62 232 -133 383 -176 126
-35 344 -45 468 -19 327 66 592 271 871 675 327 473 577 1136 672 1780 13 88
14 123 1 89z"/>
<path d="M4384 4349 c-47 -53 -402 -385 -518 -484 -258 -222 -461 -363 -671
-470 -325 -165 -614 -206 -802 -115 -113 56 -190 144 -225 260 l-13 45 -3 -76
c-10 -276 165 -533 412 -604 71 -21 216 -16 311 10 307 83 776 468 1196 980
104 127 275 365 333 463 11 19 1 14 -20 -9z"/>


<path d="M6357 2627 c-43 -112 -125 -252 -195 -334 l-65 -76 17 -76 c30 -142
33 -148 66 -153 17 -3 32 -3 34 -1 1 2 -1 29 -6 59 -5 31 -6 59 -4 62 3 2 35
-24 72 -59 l66 -64 140 2 c77 0 142 4 146 8 11 10 -48 53 -98 72 -25 9 -53 24
-64 32 -27 24 -64 102 -81 173 -17 73 -20 264 -5 357 6 35 9 65 8 67 -2 1 -16
-30 -31 -69z"/>

</g>
</svg>
